<svg xmlns="http://www.w3.org/2000/svg" viewBox="0 0 1200 800" role="img" aria-label="Static Google Maps-style image">
  <defs>
    <linearGradient id="sky" x1="0" y1="0" x2="0" y2="1">
      <stop offset="0%" stop-color="#dce7f7" />
      <stop offset="100%" stop-color="#f8fafc" />
    </linearGradient>
    <linearGradient id="road" x1="0" y1="0" x2="1" y2="1">
      <stop offset="0%" stop-color="#f8fafc" />
      <stop offset="100%" stop-color="#eff6ff" />
    </linearGradient>
  </defs>
  <rect width="1200" height="800" rx="32" fill="#f8fafc" />
  <rect x="40" y="40" width="1120" height="720" rx="32" fill="url(#sky)" />
  <rect x="64" y="64" width="1072" height="672" rx="28" fill="#eef2ff" />
  <path d="M190 160 C240 170 320 140 360 182 S460 220 520 210 S620 205 700 250" fill="none" stroke="#93c5fd" stroke-width="34" stroke-linecap="round" />
  <path d="M150 320 C210 300 280 320 340 320 S500 305 560 330 S690 340 770 310" fill="none" stroke="#60a5fa" stroke-width="38" stroke-linecap="round" />
  <path d="M160 540 C220 520 300 540 360 530 S500 540 560 520 S700 560 780 540" fill="none" stroke="#bfdfff" stroke-width="32" stroke-linecap="round" />
  <path d="M80 220 C140 240 220 240 300 220 S430 200 510 200 S680 230 760 220" fill="none" stroke="#c7d2fe" stroke-width="22" stroke-linecap="round" opacity="0.65" />
  <path d="M230 100 C300 140 380 96 460 120 S620 130 700 110" fill="none" stroke="#e0f2fe" stroke-width="22" stroke-linecap="round" opacity="0.85" />
  <path d="M245 210 L265 215 L270 235 L250 232 Z" fill="#eef2ff" stroke="#7c3aed" stroke-width="11" stroke-linejoin="round" />
  <path d="M730 280 L750 285 L755 305 L735 300 Z" fill="#eef2ff" stroke="#2563eb" stroke-width="11" stroke-linejoin="round" />
  <circle cx="320" cy="480" r="18" fill="#ffffff" stroke="#1d4ed8" stroke-width="10" />
  <path d="M320 455 L320 520" stroke="#1d4ed8" stroke-width="8" stroke-linecap="round" />
  <circle cx="860" cy="360" r="18" fill="#ffffff" stroke="#1d4ed8" stroke-width="10" />
  <path d="M860 335 L860 400" stroke="#1d4ed8" stroke-width="8" stroke-linecap="round" />
  <circle cx="520" cy="220" r="18" fill="#ffffff" stroke="#1d4ed8" stroke-width="10" />
  <path d="M520 195 L520 260" stroke="#1d4ed8" stroke-width="8" stroke-linecap="round" />
  <rect x="76" y="650" width="300" height="98" rx="22" fill="#ffffff" opacity="0.94" />
  <text x="106" y="690" font-family="Inter, sans-serif" font-size="34" fill="#1e3a8a" font-weight="700">Surat</text>
  <text x="106" y="724" font-family="Inter, sans-serif" font-size="18" fill="#64748b">Nearby professionals</text>
  <rect x="688" y="632" width="336" height="104" rx="22" fill="#ffffff" opacity="0.94" />
  <text x="718" y="672" font-family="Inter, sans-serif" font-size="22" fill="#1f2937" font-weight="700">12 pros shown</text>
  <text x="718" y="704" font-family="Inter, sans-serif" font-size="16" fill="#6b7280">within 5 km • Surat</text>
</svg>
